# xmcd
#
# Track frame offsets:
#	150
#	21102
#	39337
#	55892
#	71062
#	90945
#	103997
#	118254
#	140565
#	156172
#	170612
#	187117
#
# Disc length: 2684 seconds
#
# Revision: 0
# Processed by: cddbd v1.5PL3 Copyright (c) Steve Scherf et al.
# Submitted via: dBpowerAMP V4.0
#
DISCID=a90a7a0c
DTITLE=BuckStorm - Goodbye from Venus
DYEAR=1998
DGENRE=
TTITLE0=Trailer Full of Crosses
TTITLE1=Familiar
TTITLE2=Space Age Lodge
TTITLE3=Rage of Angels
TTITLE4=Jesus Saves
TTITLE5=Wondering
TTITLE6=Satellite Song
TTITLE7=Frankie Found Salvation
TTITLE8=Mexico City
TTITLE9=Love
TTITLE10=El Centro
TTITLE11=Goodbye from Venus
EXTD=
EXTT0=
EXTT1=
EXTT2=
EXTT3=
EXTT4=
EXTT5=
EXTT6=
EXTT7=
EXTT8=
EXTT9=
EXTT10=
EXTT11=
PLAYORDER=
